<mxfile host="app.diagrams.net" modified="2021-02-25T05:40:05.972Z" agent="5.0 (Windows NT 10.0; WOW64) AppleWebKit/537.36 (KHTML, like Gecko) Chrome/88.0.4324.182 Safari/537.36" etag="DjPB6RSwTysndAcLKxYu" version="14.4.2" type="github">
  <diagram id="Z_6aMMrOGbZZ-wcmKmzK" name="Page-1">
    <mxGraphModel dx="868" dy="450" grid="1" gridSize="10" guides="1" tooltips="1" connect="1" arrows="1" fold="1" page="1" pageScale="1" pageWidth="827" pageHeight="1169" math="0" shadow="0">
      <root>
        <mxCell id="0" />
        <mxCell id="1" parent="0" />
        <mxCell id="CbdLgMKPL1blzFuqr_KG-42" value="" style="rounded=0;whiteSpace=wrap;html=1;shadow=0;sketch=1;fillColor=none;" vertex="1" parent="1">
          <mxGeometry x="30" y="80" width="760" height="360" as="geometry" />
        </mxCell>
        <mxCell id="CbdLgMKPL1blzFuqr_KG-43" value="" style="rounded=0;whiteSpace=wrap;html=1;shadow=0;sketch=1;fillColor=none;" vertex="1" parent="1">
          <mxGeometry x="30" y="530" width="760" height="360" as="geometry" />
        </mxCell>
        <mxCell id="CbdLgMKPL1blzFuqr_KG-1" value="&lt;font style=&quot;font-size: 14px&quot;&gt;&lt;b&gt;Java 内存模型&lt;/b&gt;&lt;/font&gt;" style="rounded=0;whiteSpace=wrap;html=1;fillColor=#dae8fc;strokeColor=#6c8ebf;sketch=1;" vertex="1" parent="1">
          <mxGeometry x="30" y="10" width="220" height="40" as="geometry" />
        </mxCell>
        <mxCell id="CbdLgMKPL1blzFuqr_KG-2" value="物理计算机的并发模型" style="rounded=0;whiteSpace=wrap;html=1;fillColor=#d5e8d4;strokeColor=#82b366;sketch=1;" vertex="1" parent="1">
          <mxGeometry x="50" y="90" width="140" height="40" as="geometry" />
        </mxCell>
        <mxCell id="CbdLgMKPL1blzFuqr_KG-3" value="处理器" style="rounded=1;whiteSpace=wrap;html=1;fillColor=#ffe6cc;strokeColor=#d79b00;sketch=1;" vertex="1" parent="1">
          <mxGeometry x="100" y="180" width="120" height="60" as="geometry" />
        </mxCell>
        <mxCell id="CbdLgMKPL1blzFuqr_KG-4" value="" style="shape=flexArrow;endArrow=classic;startArrow=classic;html=1;sketch=1;" edge="1" parent="1">
          <mxGeometry width="50" height="50" relative="1" as="geometry">
            <mxPoint x="230" y="209.5" as="sourcePoint" />
            <mxPoint x="300" y="209.5" as="targetPoint" />
          </mxGeometry>
        </mxCell>
        <mxCell id="CbdLgMKPL1blzFuqr_KG-5" value="高速缓存" style="rounded=1;whiteSpace=wrap;html=1;fillColor=#fff2cc;strokeColor=#d6b656;shadow=0;sketch=1;" vertex="1" parent="1">
          <mxGeometry x="310" y="180" width="120" height="60" as="geometry" />
        </mxCell>
        <mxCell id="CbdLgMKPL1blzFuqr_KG-6" value="" style="shape=flexArrow;endArrow=classic;startArrow=classic;html=1;sketch=1;" edge="1" parent="1">
          <mxGeometry width="50" height="50" relative="1" as="geometry">
            <mxPoint x="440" y="209.5" as="sourcePoint" />
            <mxPoint x="510" y="209.5" as="targetPoint" />
          </mxGeometry>
        </mxCell>
        <mxCell id="CbdLgMKPL1blzFuqr_KG-8" value="缓存一致性协议" style="rounded=0;verticalAlign=middle;fillColor=#f8cecc;strokeColor=#b85450;horizontal=1;sketch=1;html=1;whiteSpace=wrap;spacingLeft=10;spacingRight=10;" vertex="1" parent="1">
          <mxGeometry x="520" y="180" width="40" height="210" as="geometry" />
        </mxCell>
        <mxCell id="CbdLgMKPL1blzFuqr_KG-12" value="处理器" style="rounded=1;whiteSpace=wrap;html=1;fillColor=#ffe6cc;strokeColor=#d79b00;sketch=1;" vertex="1" parent="1">
          <mxGeometry x="100" y="260" width="120" height="60" as="geometry" />
        </mxCell>
        <mxCell id="CbdLgMKPL1blzFuqr_KG-13" value="" style="shape=flexArrow;endArrow=classic;startArrow=classic;html=1;sketch=1;" edge="1" parent="1">
          <mxGeometry width="50" height="50" relative="1" as="geometry">
            <mxPoint x="230" y="289.5" as="sourcePoint" />
            <mxPoint x="300" y="289.5" as="targetPoint" />
          </mxGeometry>
        </mxCell>
        <mxCell id="CbdLgMKPL1blzFuqr_KG-14" value="高速缓存" style="rounded=1;whiteSpace=wrap;html=1;fillColor=#fff2cc;strokeColor=#d6b656;sketch=1;" vertex="1" parent="1">
          <mxGeometry x="310" y="260" width="120" height="60" as="geometry" />
        </mxCell>
        <mxCell id="CbdLgMKPL1blzFuqr_KG-15" value="" style="shape=flexArrow;endArrow=classic;startArrow=classic;html=1;sketch=1;" edge="1" parent="1">
          <mxGeometry width="50" height="50" relative="1" as="geometry">
            <mxPoint x="440" y="289.5" as="sourcePoint" />
            <mxPoint x="510" y="289.5" as="targetPoint" />
          </mxGeometry>
        </mxCell>
        <mxCell id="CbdLgMKPL1blzFuqr_KG-16" value="处理器" style="rounded=1;whiteSpace=wrap;html=1;fillColor=#ffe6cc;strokeColor=#d79b00;sketch=1;" vertex="1" parent="1">
          <mxGeometry x="100" y="330" width="120" height="60" as="geometry" />
        </mxCell>
        <mxCell id="CbdLgMKPL1blzFuqr_KG-17" value="" style="shape=flexArrow;endArrow=classic;startArrow=classic;html=1;sketch=1;" edge="1" parent="1">
          <mxGeometry width="50" height="50" relative="1" as="geometry">
            <mxPoint x="230" y="359.5" as="sourcePoint" />
            <mxPoint x="300" y="359.5" as="targetPoint" />
          </mxGeometry>
        </mxCell>
        <mxCell id="CbdLgMKPL1blzFuqr_KG-18" value="高速缓存" style="rounded=1;whiteSpace=wrap;html=1;fillColor=#fff2cc;strokeColor=#d6b656;sketch=1;" vertex="1" parent="1">
          <mxGeometry x="310" y="330" width="120" height="60" as="geometry" />
        </mxCell>
        <mxCell id="CbdLgMKPL1blzFuqr_KG-19" value="" style="shape=flexArrow;endArrow=classic;startArrow=classic;html=1;sketch=1;" edge="1" parent="1">
          <mxGeometry width="50" height="50" relative="1" as="geometry">
            <mxPoint x="440" y="359.5" as="sourcePoint" />
            <mxPoint x="510" y="359.5" as="targetPoint" />
          </mxGeometry>
        </mxCell>
        <mxCell id="CbdLgMKPL1blzFuqr_KG-20" value="主内存" style="ellipse;whiteSpace=wrap;html=1;rounded=1;sketch=1;strokeColor=#9673a6;fillColor=#e1d5e7;shadow=0;spacingLeft=0;spacingRight=0;spacingTop=0;spacing=2;verticalAlign=middle;horizontal=1;labelBorderColor=none;treeFolding=0;treeMoving=0;dropTarget=0;autosize=0;noLabel=0;portConstraintRotation=0;snapToPoint=0;fixDash=0;" vertex="1" parent="1">
          <mxGeometry x="640" y="190" width="100" height="170" as="geometry" />
        </mxCell>
        <mxCell id="CbdLgMKPL1blzFuqr_KG-21" value="" style="shape=flexArrow;endArrow=classic;startArrow=classic;html=1;sketch=1;" edge="1" parent="1">
          <mxGeometry width="50" height="50" relative="1" as="geometry">
            <mxPoint x="567" y="274.5" as="sourcePoint" />
            <mxPoint x="637" y="274.5" as="targetPoint" />
          </mxGeometry>
        </mxCell>
        <mxCell id="CbdLgMKPL1blzFuqr_KG-23" value="Java 内存模型&lt;br&gt;(JMM,Java Memory Model)" style="rounded=0;whiteSpace=wrap;html=1;fillColor=#d5e8d4;strokeColor=#82b366;sketch=1;" vertex="1" parent="1">
          <mxGeometry x="50" y="550" width="170" height="40" as="geometry" />
        </mxCell>
        <mxCell id="CbdLgMKPL1blzFuqr_KG-24" value="Java 线程" style="rounded=1;whiteSpace=wrap;html=1;fillColor=#ffe6cc;strokeColor=#d79b00;sketch=1;" vertex="1" parent="1">
          <mxGeometry x="100" y="640" width="120" height="60" as="geometry" />
        </mxCell>
        <mxCell id="CbdLgMKPL1blzFuqr_KG-25" value="" style="shape=flexArrow;endArrow=classic;startArrow=classic;html=1;sketch=1;" edge="1" parent="1">
          <mxGeometry width="50" height="50" relative="1" as="geometry">
            <mxPoint x="230" y="669.5" as="sourcePoint" />
            <mxPoint x="300" y="669.5" as="targetPoint" />
          </mxGeometry>
        </mxCell>
        <mxCell id="CbdLgMKPL1blzFuqr_KG-26" value="工作内存" style="rounded=1;whiteSpace=wrap;html=1;shadow=0;sketch=1;fillColor=#fff2cc;strokeColor=#d6b656;" vertex="1" parent="1">
          <mxGeometry x="310" y="640" width="120" height="60" as="geometry" />
        </mxCell>
        <mxCell id="CbdLgMKPL1blzFuqr_KG-27" value="" style="shape=flexArrow;endArrow=classic;startArrow=classic;html=1;sketch=1;" edge="1" parent="1">
          <mxGeometry width="50" height="50" relative="1" as="geometry">
            <mxPoint x="440" y="669.5" as="sourcePoint" />
            <mxPoint x="510" y="669.5" as="targetPoint" />
          </mxGeometry>
        </mxCell>
        <mxCell id="CbdLgMKPL1blzFuqr_KG-28" value="Save和Load&lt;br&gt;操作" style="rounded=0;verticalAlign=middle;horizontal=1;sketch=1;html=1;whiteSpace=wrap;spacingLeft=10;spacingRight=10;fillColor=#f8cecc;strokeColor=#b85450;" vertex="1" parent="1">
          <mxGeometry x="520" y="640" width="40" height="210" as="geometry" />
        </mxCell>
        <mxCell id="CbdLgMKPL1blzFuqr_KG-29" value="Java 线程" style="rounded=1;whiteSpace=wrap;html=1;fillColor=#ffe6cc;strokeColor=#d79b00;sketch=1;" vertex="1" parent="1">
          <mxGeometry x="100" y="720" width="120" height="60" as="geometry" />
        </mxCell>
        <mxCell id="CbdLgMKPL1blzFuqr_KG-30" value="" style="shape=flexArrow;endArrow=classic;startArrow=classic;html=1;sketch=1;" edge="1" parent="1">
          <mxGeometry width="50" height="50" relative="1" as="geometry">
            <mxPoint x="230" y="749.5" as="sourcePoint" />
            <mxPoint x="300" y="749.5" as="targetPoint" />
          </mxGeometry>
        </mxCell>
        <mxCell id="CbdLgMKPL1blzFuqr_KG-31" value="工作内存" style="rounded=1;whiteSpace=wrap;html=1;fillColor=#fff2cc;strokeColor=#d6b656;sketch=1;" vertex="1" parent="1">
          <mxGeometry x="310" y="720" width="120" height="60" as="geometry" />
        </mxCell>
        <mxCell id="CbdLgMKPL1blzFuqr_KG-32" value="" style="shape=flexArrow;endArrow=classic;startArrow=classic;html=1;sketch=1;" edge="1" parent="1">
          <mxGeometry width="50" height="50" relative="1" as="geometry">
            <mxPoint x="440" y="749.5" as="sourcePoint" />
            <mxPoint x="510" y="749.5" as="targetPoint" />
          </mxGeometry>
        </mxCell>
        <mxCell id="CbdLgMKPL1blzFuqr_KG-33" value="Java 线程" style="rounded=1;whiteSpace=wrap;html=1;fillColor=#ffe6cc;strokeColor=#d79b00;sketch=1;" vertex="1" parent="1">
          <mxGeometry x="100" y="790" width="120" height="60" as="geometry" />
        </mxCell>
        <mxCell id="CbdLgMKPL1blzFuqr_KG-34" value="" style="shape=flexArrow;endArrow=classic;startArrow=classic;html=1;sketch=1;" edge="1" parent="1">
          <mxGeometry width="50" height="50" relative="1" as="geometry">
            <mxPoint x="230" y="819.5" as="sourcePoint" />
            <mxPoint x="300" y="819.5" as="targetPoint" />
          </mxGeometry>
        </mxCell>
        <mxCell id="CbdLgMKPL1blzFuqr_KG-35" value="工作内存" style="rounded=1;whiteSpace=wrap;html=1;fillColor=#fff2cc;strokeColor=#d6b656;sketch=1;" vertex="1" parent="1">
          <mxGeometry x="310" y="790" width="120" height="60" as="geometry" />
        </mxCell>
        <mxCell id="CbdLgMKPL1blzFuqr_KG-36" value="" style="shape=flexArrow;endArrow=classic;startArrow=classic;html=1;sketch=1;" edge="1" parent="1">
          <mxGeometry width="50" height="50" relative="1" as="geometry">
            <mxPoint x="440" y="819.5" as="sourcePoint" />
            <mxPoint x="510" y="819.5" as="targetPoint" />
          </mxGeometry>
        </mxCell>
        <mxCell id="CbdLgMKPL1blzFuqr_KG-37" value="主内存" style="ellipse;whiteSpace=wrap;html=1;rounded=1;sketch=1;strokeColor=#9673a6;fillColor=#e1d5e7;shadow=0;spacingLeft=0;spacingRight=0;spacingTop=0;spacing=2;verticalAlign=middle;horizontal=1;labelBorderColor=none;treeFolding=0;treeMoving=0;dropTarget=0;autosize=0;noLabel=0;portConstraintRotation=0;snapToPoint=0;fixDash=0;" vertex="1" parent="1">
          <mxGeometry x="640" y="650" width="100" height="170" as="geometry" />
        </mxCell>
        <mxCell id="CbdLgMKPL1blzFuqr_KG-38" value="" style="shape=flexArrow;endArrow=classic;startArrow=classic;html=1;sketch=1;" edge="1" parent="1">
          <mxGeometry width="50" height="50" relative="1" as="geometry">
            <mxPoint x="567" y="734.5" as="sourcePoint" />
            <mxPoint x="637" y="734.5" as="targetPoint" />
          </mxGeometry>
        </mxCell>
        <mxCell id="CbdLgMKPL1blzFuqr_KG-44" style="edgeStyle=orthogonalEdgeStyle;rounded=0;sketch=1;orthogonalLoop=1;jettySize=auto;html=1;entryX=0.5;entryY=0;entryDx=0;entryDy=0;" edge="1" parent="1" source="CbdLgMKPL1blzFuqr_KG-42" target="CbdLgMKPL1blzFuqr_KG-43">
          <mxGeometry relative="1" as="geometry" />
        </mxCell>
      </root>
    </mxGraphModel>
  </diagram>
</mxfile>
